<svg width="42" height="70" viewBox="0 0 42 70" fill="none" xmlns="http://www.w3.org/2000/svg">
<g clip-path="url(#clip0_3_65)">
<path d="M14.6109 1.00478C14.0817 0.775694 14.0157 0.735168 13.6061 0.334928C11.6551 1.26837 10.3285 3.43201 7.9123 2.67943V3.68421L7.24245 3.01435C6.05412 5.70617 3.59977 7.26024 2.04034 9.71794C0.845317 11.6009 0.692922 13.2719 0.401535 15.4067C-0.125642 19.2681 -0.455211 22.6137 1.54867 26.1244C-0.426742 27.2146 0.487946 29.3956 1.15144 31.1483C1.82464 32.9265 2.6412 34.6215 2.96943 36.5072C3.58403 40.0383 3.27254 45.1406 6.57259 47.5598C4.83833 52.3185 8.97302 57.4914 12.7942 60.1598C14.088 61.0638 15.6937 61.4644 16.9071 62.502C17.8021 63.2669 18.1434 64.3806 18.8199 65.311C19.7446 66.5824 20.8512 67.6234 21.6444 68.9952C24.4249 67.3162 22.3089 64.5393 19.6348 64.9761C19.5541 63.8447 19.2948 63.2167 18.63 62.2967L22.3142 62.6316V61.2919L21.3094 60.9569C22.8153 59.9213 24.4812 58.7504 26.3334 59.2823C26.3334 58.6804 26.3287 58.7725 25.9984 58.2775C26.8907 58.0193 27.8425 56.7023 28.008 57.9426C28.3131 57.4814 28.4782 57.1254 28.6779 56.6029L27.6731 56.2679V55.5981C31.3003 53.5822 33.5259 49.1547 34.3716 45.2153C36.7299 53.194 27.4627 58.4838 25.3286 65.311C27.7387 64.2362 28.076 62.7063 29.2941 60.622C30.528 58.51 32.3895 56.0198 34.3716 54.5933C34.5388 52.5764 35.6909 50.8763 35.9759 48.8995C36.2647 46.8967 35.4622 45.1282 35.5201 43.2057C35.6012 40.5277 36.7218 37.8878 36.686 35.1688C36.6558 32.8752 35.5513 30.6717 35.0415 28.4689C35.6996 29.1562 35.9036 29.5387 36.0463 30.4785H36.7161C36.8742 28.7968 36.6213 27.8928 35.0415 27.1292C35.3798 25.3393 35.5288 23.2078 37.7209 23.11L36.7161 23.7799C37.0708 25.6629 37.5652 27.5659 37.7209 29.4737C38.6825 28.066 38.7532 25.0955 38.1955 23.4751C37.9812 22.8522 37.4912 22.3622 37.3424 21.7134C37.0551 20.4604 37.4975 19.0437 37.316 17.7512C36.7851 13.9722 35.3138 10.2676 33.3668 7.03349C33.7641 7.43072 33.8974 7.54526 34.3716 7.70335C31.437 4.32828 26.7282 1.6944 22.3142 0.826603C20.0052 0.37244 17.0404 0.948182 14.9458 0M11.3731 1.22818C11.3547 1.2466 11.3359 1.60029 11.485 1.45124C11.5034 1.43282 11.5222 1.07914 11.3731 1.22818ZM13.6061 1.00478C13.1965 1.40502 13.1305 1.44555 12.6013 1.67464C13.0109 1.2744 13.0769 1.23388 13.6061 1.00478ZM21.6444 8.03828L21.9793 9.04306C24.086 8.19569 25.0998 9.21656 27.0032 10.0478C27.4118 11.4411 28.5047 12.246 29.3477 13.3971C29.7449 13.0501 29.8849 12.9487 30.3525 12.7273C32.0425 16.2028 32.5201 19.4064 33.3668 23.11C32.1939 23.1231 31.0957 23.5776 29.9606 23.5913C28.5479 23.6081 27.4627 22.9315 25.9984 23.242C24.2307 23.6165 22.3557 24.088 20.6396 24.65C19.6311 24.9803 18.6997 25.5996 17.6252 25.7037C16.4774 25.8146 15.4053 25.2596 14.2759 25.1544C11.3704 24.8845 8.09752 24.9227 5.23288 25.4545C5.42512 23.0159 5.75235 20.5378 5.5678 18.0861C4.95991 19.2872 4.95957 20.9417 3.89316 21.7703C3.75551 20.642 3.27689 19.5611 3.25479 18.4211C3.22766 17.0197 3.86637 15.7272 4.22809 14.4019H5.5678L5.90273 13.0622C7.17446 13.5961 8.23216 14.4156 9.58694 14.7368L8.24723 14.067L10.5917 13.0622V15.0718L11.2616 13.7321C11.7017 13.9893 11.6742 13.9618 11.9314 14.4019H12.6013C13.0916 13.7428 13.4741 13.6142 14.2759 13.3971C14.496 12.2115 15.4847 11.4214 16.6204 11.0526C16.2902 10.5576 16.2855 10.6497 16.2855 10.0478C17.926 9.77789 20.383 10.155 20.6396 8.03828H21.6444ZM8.58216 11.7225C8.39962 12.2701 8.45991 12.2098 7.9123 12.3923V11.7225H8.58216ZM34.7066 30.8134L33.3668 29.4737C34.0052 31.7455 34.7119 34.5365 34.0367 36.8421C35.0552 37.7464 33.8347 39.1451 33.3668 40.1914L32.0271 39.8565L31.6922 41.5311L30.6874 41.1962C30.5759 42.4344 30.2068 43.4228 29.6826 44.5455L28.6779 43.8756C29.0804 42.6059 29.5728 41.2039 29.2409 39.8565C28.637 37.4034 24.5917 34.583 22.3142 33.8278C22.7302 34.4608 23.3689 35.2411 23.0809 36.0678C22.7158 37.1161 19.0376 38.0696 18.0171 38.0197C17.1228 37.9758 15.472 37.3703 14.6618 36.9801C13.0126 36.186 14.2646 34.7565 15.2807 34.1627C11.8038 34.7468 11.1082 38.9354 8.24723 40.1914C8.91809 41.9169 9.98852 43.3297 9.58694 45.2153C6.15192 43.3086 6.67307 39.4442 5.5678 36.1722L4.22809 36.8421C4.22943 35.0757 4.68795 33.5421 4.89795 31.8182H3.89316V34.4976C2.99589 32.4174 3.55689 30.0032 3.55823 27.799C4.66283 29.5544 4.839 31.644 6.58699 33.0139C8.86651 34.8 12.9014 34.5676 14.8704 32.4519C16.0249 31.2116 16.5729 29.4131 16.9554 27.799C19.404 28.219 20.026 31.5375 22.3142 32.6311C25.1192 33.9718 29.1364 32.9636 30.5859 30.1432C31.7686 27.8416 31.0766 25.828 33.7018 24.4498M31.3573 24.7847C30.9393 25.0141 30.8388 25.0356 30.3525 25.1196C30.7705 24.8902 30.871 24.8688 31.3573 24.7847ZM14.9458 26.1244C14.5278 26.3538 14.4273 26.3753 13.941 26.4593C14.359 26.2299 14.4595 26.2085 14.9458 26.1244ZM9.92187 27.1292L11.2616 27.4641C10.7414 27.7622 9.56015 28.0054 9.92187 27.1292ZM20.9745 27.799V29.8086L22.6491 29.1388L22.3142 30.1435H28.3429L27.6731 29.8086C28.7194 29.3193 29.4335 29.1957 30.0176 28.134C31.5599 32.1273 24.85 33.2058 22.3159 32.0078C20.5957 31.1945 19.7999 29.3514 20.9745 27.799ZM27.3381 28.4689V29.1388H25.6635V28.4689H27.3381ZM2.55345 28.8038V30.1435C2.31565 29.5544 2.31565 29.393 2.55345 28.8038ZM15.2807 30.4785C14.1775 34.365 6.91522 34.6815 5.5678 30.8134C8.24388 31.6434 12.7925 31.8624 15.2807 30.4785ZM37.386 30.4785L37.0511 31.8182C37.4875 31.2595 37.5712 31.151 37.386 30.4785ZM24.3238 35.5024C25.3276 36.1733 26.0976 36.7798 26.6683 37.8469C25.5406 37.867 24.4407 37.9722 23.319 37.8469C23.5149 36.9369 23.7819 36.2597 24.3238 35.5024ZM13.941 38.5167C12.9459 38.8738 12.2982 39.0556 11.2616 38.8517L12.2664 36.8421C13.2691 37.1616 13.5347 37.5488 13.941 38.5167ZM20.6396 40.5263C19.685 41.1784 18.7673 41.1861 17.6252 41.1962V40.5263H20.6396ZM24.3238 41.1962C23.7641 42.0663 23.3428 42.206 22.3142 42.201V42.8708C20.2417 42.9174 16.748 44.1181 15.2807 42.201L24.3238 41.1962ZM25.6635 43.2057C25.7941 43.9496 25.7757 44.4631 25.6635 45.2153L24.9936 44.8804C24.7696 45.6417 24.5338 45.9632 23.9889 46.555C21.8262 45.912 19.5219 46.33 17.2903 46.2057C16.0326 46.1357 14.8574 45.6748 13.6061 45.5502V44.5455C12.532 44.379 12.1177 44.1603 11.5965 43.2057C12.2406 43.5079 12.266 43.5661 12.6013 44.2105C12.9315 43.7152 12.9362 43.8076 12.9362 43.2057L15.9506 44.5455C17.3744 42.6836 21.498 44.0246 23.6238 43.5363C24.7716 43.2727 25.6427 42.0948 26.6683 41.5311M32.9204 44.7689C32.9388 44.7873 32.9576 45.141 32.8085 44.9919C32.7901 44.9735 32.7713 44.6198 32.9204 44.7689ZM12.8247 45.4387C12.8431 45.4571 12.8619 45.8108 12.7128 45.6618C12.6944 45.6433 12.6757 45.2897 12.8247 45.4387ZM24.6587 47.2249C24.0528 47.4171 23.9657 47.3806 23.319 47.2249C23.9249 47.0326 24.012 47.0691 24.6587 47.2249ZM17.2903 48.8995C16.2822 49.0104 15.2928 48.9179 14.2759 48.8995L13.6061 47.5598C15.0945 47.4312 16.2319 47.8425 17.2903 48.8995ZM23.9889 48.5646C23.3361 48.8781 23.1348 49.0308 22.6491 49.5694L21.3094 49.2345C21.6129 47.4727 22.8521 47.2825 23.9889 48.5646ZM8.24723 49.9043C8.85981 51.1338 9.57288 52.2528 9.92187 53.5885C8.41034 52.7797 7.54321 51.6312 8.24723 49.9043ZM20.9745 49.9043V50.9091C20.7414 50.3886 20.7414 50.4248 20.9745 49.9043ZM33.0319 55.933C32.7017 56.4284 32.697 56.3359 32.697 56.9378C33.1287 56.4545 33.1662 56.5245 33.0319 55.933ZM6.90752 65.6459V63.6364C7.23776 64.1317 7.24245 64.0393 7.24245 64.6412L8.58216 64.3062L8.24723 62.9665C8.71613 63.345 9.05642 63.7094 9.58694 63.9713L9.25202 62.6316C9.72091 63.0101 10.0612 63.3745 10.5917 63.6364V62.2967C10.922 62.792 10.9267 62.6996 10.9267 63.3014H12.6013V61.9617L10.9267 61.2919C11.6879 59.8296 10.1017 59.6159 8.92211 60.0423C6.97785 60.7446 4.85374 64.0808 6.90752 65.6459ZM31.0224 62.2967C31.7039 61.886 31.8014 61.7263 32.0271 60.9569C32.5225 61.2872 32.4301 61.2919 33.0319 61.2919C32.5088 62.5492 31.4819 63.3627 31.0224 64.6412C32.1966 64.1615 34.7769 62.1985 35.0415 60.9569C36.2288 62.5445 38.4119 62.1175 39.3956 63.6364C39.7958 63.4361 39.7228 63.4803 40.0654 62.9665C40.7607 63.4361 40.9165 63.4629 41.7401 63.3014V62.6316C38.6775 61.3274 32.6655 57.8692 31.0224 62.2967ZM19.6348 60.9569L19.2999 61.9617C18.4411 61.4898 18.0707 61.1569 17.6252 60.2871C18.3959 60.4201 18.9328 60.6076 19.6348 60.9569ZM14.9458 62.2967C15.3574 62.923 15.5714 63.0415 16.2855 63.3014C15.7999 62.7629 15.5986 62.6101 14.9458 62.2967ZM30.0176 62.6316L29.6826 63.3014C30.1057 62.9762 30.1489 63.069 30.0176 62.6316ZM3.89316 63.6364C4.27967 64.3896 4.47962 64.5896 5.23288 64.9761C4.81087 64.3226 4.55666 64.0249 3.89316 63.6364ZM29.6826 64.9761V65.6459C30.2302 65.4634 30.17 65.5237 30.3525 64.9761H29.6826ZM28.3429 65.9809V66.6507C28.8905 66.4682 28.8302 66.5285 29.0128 65.9809H28.3429ZM23.6539 70L25.6635 69.6651C24.8165 69.3171 24.2648 69.299 23.6539 70Z" fill="#35302D"/>
</g>
<defs>
<clipPath id="clip0_3_65">
<rect width="41.7401" height="70" fill="white"/>
</clipPath>
</defs>
</svg>
